<?xml version="1.0" encoding="utf-8"?>
<!-- Generator: Adobe Illustrator 20.0.0, SVG Export Plug-In . SVG Version: 6.00 Build 0)  -->
<svg version="1.1" id="Laag_1" xmlns="http://www.w3.org/2000/svg" xmlns:xlink="http://www.w3.org/1999/xlink" x="0px" y="0px"
	 viewBox="0 0 343 179" style="enable-background:new 0 0 343 179;" xml:space="preserve">
<style type="text/css">
	.st0{fill:#5C4740;}
	.st1{fill:#ADB9C0;}
</style>
<g id="HBO-i_logo_2_">
	<path class="st0" d="M211.5,20.6c-9.5,0-17,3.1-22.6,8.1c1.4,1.6,2.5,3.6,3.2,5.9c4.4-4.9,10.8-8.1,19.4-8.1
		c19.2,0,27.4,16.1,27.4,32.1c0,15.9-8.2,32.1-27.4,32.1c-7.7,0-13.6-2.6-18-6.7c-0.9,1.8-2.1,3.5-3.9,5.1
		c5.5,4.7,12.8,7.5,21.9,7.5c22.9,0,34.3-18.1,34.3-38C245.8,38.6,234.3,20.6,211.5,20.6"/>
	<polygon class="st0" points="77.4,60.2 77.4,95.4 70.4,95.4 70.4,22.5 77.4,22.5 77.4,54.1 	"/>
	<polygon class="st0" points="121.8,54.1 121.8,22.5 128.8,22.5 128.8,95.4 121.8,95.4 121.8,60 	"/>
	<rect x="280.2" y="34.7" class="st0" width="6.2" height="9.9"/>
	<rect x="280.2" y="60.2" class="st0" width="6.2" height="35.5"/>
	<rect x="194.5" y="54.1" class="st1" width="33.4" height="6.1"/>
	<rect x="18.9" y="54.1" class="st1" width="33.4" height="6.1"/>
	<rect x="77.4" y="54.1" class="st1" width="33.4" height="6.1"/>
	<rect x="253" y="54.1" class="st1" width="33.4" height="6.1"/>
	<path class="st1" d="M175.8,57c-0.8-0.2-0.8-1.1,0-1.4C182,53.2,186,46.8,186,40c0-13.6-11.1-17.9-23.4-17.9h-26.7v5.9h5.8v0h20.9
		c10.8,0,16.4,4.6,16.4,13.7c0,6.8-5.2,12.3-16.2,12.3h-27v6.1h26.8c12.1,0,19.1,4.7,19.1,13.9c0,11.6-8.9,15.1-19.2,15h-19.2h-1.7
		h-5.6v5.9h26.5c23.7,0,26.1-13.8,26.1-20.7C188.8,65.7,183.8,59.1,175.8,57"/>
	<rect x="18.9" y="124.7" class="st0" width="33.4" height="1.5"/>
	<polygon class="st1" points="70.5,119.2 72.2,119.2 72.2,124.7 78.9,124.7 78.9,119.2 80.6,119.2 80.6,132 78.9,132 78.9,126.1 
		72.2,126.1 72.2,132 70.5,132 	"/>
	<path class="st1" d="M89.1,130.9c3.1,0,4.4-2.7,4.4-5.3c0-2.6-1.3-5.3-4.4-5.3c-3.1,0-4.4,2.7-4.4,5.3
		C84.7,128.2,86,130.9,89.1,130.9 M89.1,118.9c4.1,0,6.1,3.2,6.1,6.7c0,3.5-2.1,6.7-6.1,6.7c-4.1,0-6.1-3.2-6.1-6.7
		C83,122.1,85.1,118.9,89.1,118.9"/>
	<path class="st1" d="M107.2,130.4c-1,1.3-2.6,1.9-4.1,1.9c-3.8,0-6.1-3.1-6.1-6.5c0-3.7,2.1-7,6.1-7c2.8,0,5,1.3,5.5,4.3h-1.7
		c-0.3-1.9-1.9-2.8-3.8-2.8c-3.1,0-4.4,2.7-4.4,5.4c0,2.7,1.5,5.1,4.4,5.1c2.6,0,4.2-1.9,4.1-4.2h-4.1v-1.4h5.6v6.8h-1.1
		L107.2,130.4z"/>
	<polygon class="st1" points="111.5,119.2 120.4,119.2 120.4,120.6 113.2,120.6 113.2,124.7 119.9,124.7 119.9,126.1 113.2,126.1 
		113.2,130.6 120.5,130.6 120.5,132 111.5,132 	"/>
	<path class="st1" d="M128.1,125.1c1.6,0,3-0.4,3-2.3c0-1.3-0.7-2.2-2.3-2.2h-4.2v4.5H128.1z M122.8,119.2h6c2.4,0,3.9,1.3,3.9,3.4
		c0,1.5-0.7,2.8-2.2,3.3v0c1.5,0.3,1.8,1.4,1.9,2.6c0.1,1.3,0,2.7,0.8,3.5h-1.9c-0.5-0.5-0.2-1.9-0.5-3.2c-0.2-1.3-0.5-2.3-2.1-2.3
		h-4.2v5.5h-1.7V119.2z"/>
	<path class="st1" d="M142.3,130.6h4.3c1.5,0,2.4-0.9,2.4-2.3c0-1.7-1.3-2.1-2.8-2.1h-3.9V130.6z M142.3,124.7h3.4
		c1.9,0,2.7-0.7,2.7-2c0-1.8-1.3-2-2.7-2h-3.4V124.7z M140.6,119.2h4.7c1.1,0,2.6,0,3.4,0.5c0.8,0.5,1.5,1.4,1.5,2.7
		c0,1.4-0.7,2.4-1.9,2.9v0c1.6,0.3,2.4,1.5,2.4,3.1c0,1.9-1.4,3.7-3.9,3.7h-6.2V119.2z"/>
	<polygon class="st1" points="153.2,119.2 162.1,119.2 162.1,120.6 154.9,120.6 154.9,124.7 161.6,124.7 161.6,126.1 154.9,126.1 
		154.9,130.6 162.1,130.6 162.1,132 153.2,132 	"/>
	<path class="st1" d="M169.7,125.1c1.6,0,3-0.4,3-2.3c0-1.3-0.7-2.2-2.3-2.2h-4.2v4.5H169.7z M164.5,119.2h6c2.4,0,3.9,1.3,3.9,3.4
		c0,1.5-0.7,2.8-2.2,3.3v0c1.5,0.3,1.8,1.4,1.9,2.6c0.1,1.3,0,2.7,0.8,3.5h-1.9c-0.5-0.5-0.2-1.9-0.5-3.2c-0.2-1.3-0.5-2.3-2.1-2.3
		h-4.2v5.5h-1.7V119.2z"/>
	<path class="st1" d="M182.5,130.9c3.1,0,4.4-2.7,4.4-5.3c0-2.6-1.3-5.3-4.4-5.3c-3.1,0-4.4,2.7-4.4,5.3
		C178,128.2,179.3,130.9,182.5,130.9 M182.5,118.9c4.1,0,6.1,3.2,6.1,6.7c0,3.5-2.1,6.7-6.1,6.7c-4.1,0-6.1-3.2-6.1-6.7
		C176.3,122.1,178.4,118.9,182.5,118.9"/>
	<polygon class="st1" points="191,119.2 199.8,119.2 199.8,120.6 192.7,120.6 192.7,124.7 199.3,124.7 199.3,126.1 192.7,126.1 
		192.7,130.6 199.9,130.6 199.9,132 191,132 	"/>
	<path class="st1" d="M203.9,125.3h3.3c1.9,0,2.8-0.8,2.8-2.4c0-1.5-0.9-2.4-2.8-2.4h-3.3V125.3z M202.2,119.2h5.6
		c2.6,0,3.9,1.4,3.9,3.8c0,2.4-1.4,3.8-3.9,3.8h-3.9v5.2h-1.7V119.2z"/>
	<path class="st1" d="M221.6,122.9c-0.2-1.8-1.4-2.6-3.2-2.6c-1.4,0-2.9,0.5-2.9,2.2c0,1.6,2.1,1.8,4.1,2.3c2,0.5,4.1,1.2,4.1,3.7
		c0,2.7-2.7,3.8-5,3.8c-2.9,0-5.3-1.4-5.3-4.5h1.6c0,2.2,1.8,3.1,3.7,3.1c1.5,0,3.3-0.5,3.3-2.3c0-1.8-2-2.1-4.1-2.5
		c-2-0.4-4.1-1-4.1-3.4c0-2.6,2.3-3.8,4.7-3.8c2.6,0,4.6,1.2,4.7,4.1H221.6z"/>
	<path class="st1" d="M231.5,130.9c3.1,0,4.4-2.7,4.4-5.3c0-2.6-1.3-5.3-4.4-5.3c-3.1,0-4.4,2.7-4.4,5.3
		C227,128.2,228.4,130.9,231.5,130.9 M231.5,118.9c4.1,0,6.1,3.2,6.1,6.7c0,3.5-2.1,6.7-6.1,6.7c-4.1,0-6.1-3.2-6.1-6.7
		C225.3,122.1,227.4,118.9,231.5,118.9"/>
	<polygon class="st1" points="240,119.2 241.8,119.2 248.5,129.6 248.6,129.6 248.6,119.2 250.2,119.2 250.2,132 248.3,132 
		241.6,121.7 241.6,121.7 241.6,132 240,132 	"/>
	<path class="st1" d="M254.9,130.6h2.8c1.2,0,4.3-0.3,4.3-5c0-3.1-1.1-4.9-4.3-4.9h-2.9V130.6z M253.2,119.2h4.4c4,0,6.2,2,6.2,6.1
		c0,4.3-1.9,6.7-6.2,6.7h-4.4V119.2z"/>
	<polygon class="st1" points="266.1,119.2 275,119.2 275,120.6 267.9,120.6 267.9,124.7 274.5,124.7 274.5,126.1 267.9,126.1 
		267.9,130.6 275.1,130.6 275.1,132 266.1,132 	"/>
	<path class="st1" d="M282.7,125.1c1.6,0,3-0.4,3-2.3c0-1.3-0.7-2.2-2.3-2.2h-4.2v4.5H282.7z M277.4,119.2h6c2.4,0,3.9,1.3,3.9,3.4
		c0,1.5-0.7,2.8-2.2,3.3v0c1.5,0.3,1.8,1.4,1.9,2.6c0.1,1.3,0,2.7,0.8,3.5h-1.9c-0.5-0.5-0.2-1.9-0.5-3.2c-0.2-1.3-0.5-2.3-2.1-2.3
		h-4.2v5.5h-1.7V119.2z"/>
	<polygon class="st1" points="301.2,132 299.5,132 296.5,121.2 296.5,121.2 293.5,132 291.8,132 288.5,119.2 290.2,119.2 
		292.7,129.9 292.8,129.9 295.6,119.2 297.5,119.2 300.3,129.9 300.4,129.9 303,119.2 304.7,119.2 	"/>
	<rect x="306.6" y="119.2" class="st1" width="1.7" height="12.8"/>
	<path class="st1" d="M318,128.8c0,1.7-0.9,3.5-3.8,3.5c-2.4,0-3.7-1.3-3.7-3.7v-0.8h1.7v0.5c0,1.5,0.4,2.6,2.1,2.6
		c1.6,0,2-0.9,2-2.3v-9.4h1.7V128.8z"/>
	<path class="st1" d="M328.5,122.9c-0.2-1.8-1.4-2.6-3.2-2.6c-1.4,0-2.9,0.5-2.9,2.2c0,1.6,2,1.8,4.1,2.3c2,0.5,4.1,1.2,4.1,3.7
		c0,2.7-2.7,3.8-5,3.8c-2.9,0-5.3-1.4-5.3-4.5h1.6c0,2.2,1.8,3.1,3.7,3.1c1.5,0,3.3-0.5,3.3-2.3c0-1.8-2-2.1-4.1-2.5
		c-2-0.4-4.1-1-4.1-3.4c0-2.6,2.3-3.8,4.7-3.8c2.6,0,4.6,1.2,4.7,4.1H328.5z"/>
	<rect x="70.5" y="146.1" class="st1" width="1.7" height="12.8"/>
	<path class="st1" d="M84.4,150c-0.4-1.8-1.8-2.7-3.6-2.7c-3.1,0-4.3,2.5-4.3,5.2c0,2.9,1.3,5.4,4.4,5.4c2.2,0,3.5-1.6,3.7-3.7h1.7
		c-0.3,3.2-2.3,5.1-5.6,5.1c-4,0-5.9-2.9-5.9-6.7c0-3.7,2.1-6.8,6.1-6.8c2.7,0,4.9,1.4,5.3,4.2H84.4z"/>
	<polygon class="st1" points="91.5,147.6 87.3,147.6 87.3,146.1 97.5,146.1 97.5,147.6 93.2,147.6 93.2,159 91.5,159 	"/>
	<rect x="101.9" y="153.2" class="st1" width="9" height="1.4"/>
	<path class="st1" d="M122.1,157.8c3.1,0,4.4-2.7,4.4-5.3c0-2.6-1.3-5.3-4.4-5.3c-3.1,0-4.4,2.7-4.4,5.3
		C117.6,155.1,119,157.8,122.1,157.8 M122.1,145.8c4.1,0,6.1,3.2,6.1,6.7s-2.1,6.7-6.1,6.7c-4.1,0-6.1-3.2-6.1-6.7
		S118,145.8,122.1,145.8"/>
	<path class="st1" d="M132.3,152.3h3.3c1.9,0,2.8-0.8,2.8-2.4c0-1.5-0.9-2.4-2.8-2.4h-3.3V152.3z M130.6,146.1h5.6
		c2.6,0,3.9,1.4,3.9,3.8c0,2.4-1.4,3.8-3.9,3.8h-3.9v5.2h-1.7V146.1z"/>
	<polygon class="st1" points="142.5,146.1 144.2,146.1 144.2,157.5 151,157.5 151,159 142.5,159 	"/>
	<polygon class="st1" points="152.8,146.1 161.6,146.1 161.6,147.6 154.5,147.6 154.5,151.6 161.1,151.6 161.1,153.1 154.5,153.1 
		154.5,157.5 161.7,157.5 161.7,159 152.8,159 	"/>
	<rect x="164.1" y="146.1" class="st1" width="1.7" height="12.8"/>
	<path class="st1" d="M170.6,157.5h2.8c1.2,0,4.3-0.3,4.3-5c0-3.1-1.1-4.9-4.3-4.9h-2.9V157.5z M168.9,146.1h4.4c4,0,6.2,2,6.2,6.1
		c0,4.3-1.9,6.7-6.2,6.7h-4.4V146.1z"/>
	<rect x="181.9" y="146.1" class="st1" width="1.7" height="12.8"/>
	<polygon class="st1" points="186.8,146.1 188.6,146.1 195.3,156.5 195.4,156.5 195.4,146.1 197,146.1 197,159 195.1,159 
		188.4,148.7 188.4,148.7 188.4,159 186.8,159 	"/>
	<path class="st1" d="M209.6,157.4c-1,1.3-2.6,1.9-4.1,1.9c-3.8,0-6.1-3.1-6.1-6.5c0-3.7,2-7,6.1-7c2.8,0,5,1.3,5.5,4.3h-1.7
		c-0.3-1.9-1.9-2.8-3.8-2.8c-3.1,0-4.4,2.7-4.4,5.4c0,2.7,1.5,5.1,4.4,5.1c2.6,0,4.2-1.9,4.1-4.2h-4.1v-1.4h5.6v6.8h-1.1
		L209.6,157.4z"/>
	<polygon class="st1" points="213.9,146.1 222.8,146.1 222.8,147.6 215.6,147.6 215.6,151.6 222.3,151.6 222.3,153.1 215.6,153.1 
		215.6,157.5 222.9,157.5 222.9,159 213.9,159 	"/>
	<polygon class="st1" points="225.2,146.1 227,146.1 233.7,156.5 233.8,156.5 233.8,146.1 235.4,146.1 235.4,159 233.5,159 
		226.8,148.7 226.8,148.7 226.8,159 225.2,159 	"/>
</g>
</svg>
