<svg xmlns="http://www.w3.org/2000/svg" xmlns:xlink="http://www.w3.org/1999/xlink" width="65.992" height="60.464" viewBox="0 0 65.992 60.464">
  <defs>
    <clipPath id="clip-Analyze">
      <rect width="80" height="80"/>
    </clipPath>
  </defs>
  <path d="M 7.044105529785156 5.000003814697266 C 5.916988372802734 5.000003814697266 5 5.9169921875 5 7.044109344482422 L 5 40.37976455688477 C 5.040569305419922 40.53639984130859 5.296596527099609 40.99122619628906 5.882545471191406 41.51173782348633 C 6.480930328369141 42.04329681396484 7.0966796875 42.35986328125 7.378776550292969 42.46464538574219 C 10.01855087280273 42.61671447753906 11.85033416748047 44.55370330810547 13.30072021484375 46.45013809204102 C 14.07449340820313 47.46186828613281 14.95854949951172 48.76876831054688 15.93577194213867 50.34499359130859 C 19.06187057495117 45.65856552124023 21.83592224121094 43.24410247802734 24.82090759277344 42.57582855224609 C 26.02545547485352 42.3061637878418 28.34004211425781 42.03049468994141 36.37421417236328 42.03049468994141 C 45.65393829345703 42.03049468994141 57.73284530639648 42.4130859375 59.00524139404297 42.45426940917969 C 60.10602951049805 42.42387771606445 60.9921875 41.51894378662109 60.9921875 40.41094970703125 L 60.9921875 7.044109344482422 C 60.9921875 5.9169921875 60.07519912719727 5.000003814697266 58.94808197021484 5.000003814697266 L 7.044105529785156 5.000003814697266 M 7.044105529785156 3.814697265625e-06 L 58.94808197021484 3.814697265625e-06 C 62.83842849731445 3.814697265625e-06 65.9921875 3.153751373291016 65.9921875 7.044109344482422 L 65.9921875 40.41094970703125 C 65.9921875 44.30129623413086 62.83842849731445 47.45505523681641 58.94808197021484 47.45505523681641 C 58.94808197021484 47.45505523681641 46.16208267211914 47.03050231933594 36.37421417236328 47.03050231933594 C 31.4793815612793 47.03050231933594 27.3357048034668 47.13660049438477 25.91323852539063 47.45505523681641 C 21.6463737487793 48.41030883789063 15.93041229248047 60.46349716186523 15.93041229248047 60.46349716186523 C 15.93041229248047 60.46349716186523 9.169200897216797 47.45505523681641 7.044105529785156 47.45505523681641 C 4.919025421142578 47.45505523681641 0 44.30129623413086 0 40.41094970703125 L 0 7.044109344482422 C 0 3.153751373291016 3.15374755859375 3.814697265625e-06 7.044105529785156 3.814697265625e-06 Z" stroke="none"/>
</svg>
