<svg xmlns="http://www.w3.org/2000/svg" xmlns:xlink="http://www.w3.org/1999/xlink" width="32" height="32" viewBox="0 0 32 32">
  <defs>
    <linearGradient id="linear-gradient" x1="0.005" y1="0.015" x2="1" y2="1" gradientUnits="objectBoundingBox">
      <stop offset="0" stop-color="#72efda"/>
      <stop offset="1" stop-color="#22bef9"/>
    </linearGradient>
    <filter id="Path_11" x="-6.692" y="-6.791" width="46.954" height="55.5" filterUnits="userSpaceOnUse">
      <feOffset dy="5" input="SourceAlpha"/>
      <feGaussianBlur stdDeviation="5" result="blur"/>
      <feFlood flood-opacity="0.161"/>
      <feComposite operator="in" in2="blur"/>
      <feComposite in="SourceGraphic"/>
    </filter>
    <clipPath id="clip-favicon">
      <rect width="32" height="32"/>
    </clipPath>
  </defs>
  <g id="favicon" clip-path="url(#clip-favicon)">
    <g id="Group_41" data-name="Group 41" transform="translate(-430 -112)">
      <g id="Group_42" data-name="Group 42" transform="translate(430 112)">
        <rect id="Rectangle_1" data-name="Rectangle 1" width="32" height="32" rx="3" transform="translate(0)" fill="url(#linear-gradient)"/>
        <g id="Group_1" data-name="Group 1" transform="translate(8.308 3.209)">
          <g transform="matrix(1, 0, 0, 1, -8.31, -3.21)" filter="url(#Path_11)">
            <path id="Path_11-2" data-name="Path 11" d="M9.432-95.383q1.1-.172,2.54-.275t3.6-.1a19.746,19.746,0,0,1,3.569.309,8.906,8.906,0,0,1,2.934,1.047,5.44,5.44,0,0,1,1.973,1.973,6.05,6.05,0,0,1,.721,3.089,6.214,6.214,0,0,1-.326,2.042,5.652,5.652,0,0,1-.875,1.647,5.4,5.4,0,0,1-1.236,1.167,3.353,3.353,0,0,1-1.407.566,7.5,7.5,0,0,1,1.75.48,5.9,5.9,0,0,1,1.785,1.115,5.871,5.871,0,0,1,1.373,1.9,6.568,6.568,0,0,1,.549,2.814,7.113,7.113,0,0,1-.841,3.655A6.186,6.186,0,0,1,23.28-71.7a9.671,9.671,0,0,1-3.295,1.133,24.1,24.1,0,0,1-3.93.309q-1.579,0-3.123-.086t-3.5-.326Zm4.976,20.935q.48.069,1.115.1t1.15.034a8.817,8.817,0,0,0,1.51-.137,4.475,4.475,0,0,0,1.476-.532,3.247,3.247,0,0,0,1.133-1.1,3.383,3.383,0,0,0,.446-1.836,4.022,4.022,0,0,0-.343-1.767,2.848,2.848,0,0,0-.978-1.133,4.061,4.061,0,0,0-1.51-.6,10.1,10.1,0,0,0-1.939-.172H14.408Zm1.51-10.914a7.787,7.787,0,0,0,1.6-.154,3.352,3.352,0,0,0,1.287-.549,2.643,2.643,0,0,0,.858-1.064,4.063,4.063,0,0,0,.309-1.7,3.277,3.277,0,0,0-.36-1.63,2.778,2.778,0,0,0-.927-1,3.406,3.406,0,0,0-1.27-.48,8.247,8.247,0,0,0-1.39-.12,10.592,10.592,0,0,0-1.613.1v6.589Z" transform="translate(-1.12 98.97)" fill="#fff"/>
          </g>
        </g>
      </g>
    </g>
  </g>
</svg>
