<svg xmlns="http://www.w3.org/2000/svg" xmlns:xlink="http://www.w3.org/1999/xlink" width="80" height="80" viewBox="0 0 80 80">
  <defs>
    <clipPath id="clip-realize">
      <rect width="80" height="80"/>
    </clipPath>
  </defs>
  <g id="realize" clip-path="url(#clip-realize)">
    <g id="Path_5" data-name="Path 5" transform="matrix(0.788, -0.616, 0.616, 0.788, 7.332, 34.101)" fill="none">
      <path d="M0,0H36.349L55.223,11.125v11.76H0V0Z" stroke="#000" stroke-width="5"/>
      <path d="M 4.999996185302734 5.000001907348633 L 4.999996185302734 5.554742813110352 L 4.999996185302734 6.943390846252441 L 4.999996185302734 17.06914329528809 L 4.999996185302734 17.88506126403809 L 50.22265625 17.88506126403809 L 50.22265625 13.98174571990967 L 34.98509979248047 5.000001907348633 L 4.999996185302734 5.000001907348633 M -3.814697265625e-06 1.9073486328125e-06 L 36.34905624389648 1.9073486328125e-06 L 55.22265625 11.12500190734863 L 55.22265625 22.88506126403809 L -3.814697265625e-06 22.88506126403809 L -3.814697265625e-06 18.25850868225098 L -3.814697265625e-06 17.06914329528809 L -3.814697265625e-06 6.943390846252441 L -3.814697265625e-06 5.554742813110352 L -3.814697265625e-06 1.9073486328125e-06 Z" stroke="none"/>
    </g>
    <line id="Line_7" data-name="Line 7" y2="46.268" transform="matrix(0.788, -0.616, 0.616, 0.788, 42.634, 35.245)" fill="none" stroke="#000" stroke-width="5"/>
  </g>
</svg>

